<svg width="1762" height="1306" viewBox="0 0 1762 1306" fill="none" xmlns="http://www.w3.org/2000/svg">
<path d="M0.5 1305.5H1743.22V3.56543H0.5V1305.5Z" stroke="#777272"/>
<line y1="-0.5" x2="1302.93" y2="-0.5" transform="matrix(-4.01909e-08 -1 -1 4.75402e-08 97.9131 1306)" stroke="#777272"/>
<line y1="-0.5" x2="1302.93" y2="-0.5" transform="matrix(-4.01909e-08 -1 -1 4.75402e-08 195.827 1306)" stroke="#777272"/>
<line y1="-0.5" x2="1302.93" y2="-0.5" transform="matrix(-4.01909e-08 -1 -1 4.75402e-08 97.9131 1306)" stroke="#777272"/>
<line y1="-0.5" x2="1302.93" y2="-0.5" transform="matrix(-4.01909e-08 -1 -1 4.75402e-08 195.827 1306)" stroke="#777272"/>
<line y1="-0.5" x2="1302.93" y2="-0.5" transform="matrix(-4.01909e-08 -1 -1 4.75402e-08 293.74 1306)" stroke="#777272"/>
<line y1="-0.5" x2="1302.93" y2="-0.5" transform="matrix(-4.01909e-08 -1 -1 4.75402e-08 391.653 1306)" stroke="#777272"/>
<line y1="-0.5" x2="1302.93" y2="-0.5" transform="matrix(-4.01909e-08 -1 -1 4.75402e-08 491.007 1306)" stroke="#777272"/>
<line y1="-0.5" x2="1302.93" y2="-0.5" transform="matrix(-4.01909e-08 -1 -1 4.75402e-08 584.6 1306)" stroke="#777272"/>
<line y1="-0.5" x2="1302.93" y2="-0.5" transform="matrix(-4.01909e-08 -1 -1 4.75402e-08 685.393 1306)" stroke="#777272"/>
<line y1="-0.5" x2="1302.93" y2="-0.5" transform="matrix(-4.01909e-08 -1 -1 4.75402e-08 783.307 1306)" stroke="#777272"/>
<line y1="-0.5" x2="1302.93" y2="-0.5" transform="matrix(-4.01909e-08 -1 -1 4.75402e-08 881.22 1306)" stroke="#777272"/>
<line y1="-0.5" x2="1302.93" y2="-0.5" transform="matrix(-4.01909e-08 -1 -1 4.75402e-08 979.133 1306)" stroke="#777272"/>
<line y1="-0.5" x2="1302.93" y2="-0.5" transform="matrix(-4.01909e-08 -1 -1 4.75402e-08 1077.05 1306)" stroke="#777272"/>
<line y1="-0.5" x2="1302.93" y2="-0.5" transform="matrix(-4.01909e-08 -1 -1 4.75402e-08 1176.4 1306)" stroke="#777272"/>
<line y1="-0.5" x2="1302.93" y2="-0.5" transform="matrix(-4.01909e-08 -1 -1 4.75402e-08 1269.99 1306)" stroke="#777272"/>
<line y1="-0.5" x2="1302.93" y2="-0.5" transform="matrix(-4.01909e-08 -1 -1 4.75402e-08 1370.79 1306)" stroke="#777272"/>
<line y1="-0.5" x2="1302.93" y2="-0.5" transform="matrix(-4.01909e-08 -1 -1 4.75402e-08 1468.7 1306)" stroke="#777272"/>
<line y1="-0.5" x2="1302.93" y2="-0.5" transform="matrix(-4.01909e-08 -1 -1 4.75402e-08 881.22 1306)" stroke="#777272"/>
<line y1="-0.5" x2="1302.93" y2="-0.5" transform="matrix(-4.01909e-08 -1 -1 4.75402e-08 979.133 1306)" stroke="#777272"/>
<line y1="-0.5" x2="1302.93" y2="-0.5" transform="matrix(-4.01909e-08 -1 -1 4.75402e-08 1077.05 1306)" stroke="#777272"/>
<line y1="-0.5" x2="1302.93" y2="-0.5" transform="matrix(-4.01909e-08 -1 -1 4.75402e-08 1176.4 1306)" stroke="#777272"/>
<line y1="-0.5" x2="1302.93" y2="-0.5" transform="matrix(-4.01909e-08 -1 -1 4.75402e-08 1269.99 1306)" stroke="#777272"/>
<line y1="-0.5" x2="1302.93" y2="-0.5" transform="matrix(-4.01909e-08 -1 -1 4.75402e-08 1370.79 1306)" stroke="#777272"/>
<line y1="-0.5" x2="1302.93" y2="-0.5" transform="matrix(-4.01909e-08 -1 -1 4.75402e-08 1468.7 1306)" stroke="#777272"/>
<line y1="-0.5" x2="1302.93" y2="-0.5" transform="matrix(-4.01909e-08 -1 -1 4.75402e-08 1562.29 1306)" stroke="#777272"/>
<line y1="-0.5" x2="1302.93" y2="-0.5" transform="matrix(-4.01909e-08 -1 -1 4.75402e-08 1663.09 1306)" stroke="#777272"/>
<line y1="-0.5" x2="1302.93" y2="-0.5" transform="matrix(-4.01909e-08 -1 -1 4.75402e-08 1761 1306)" stroke="#777272"/>
<line y1="-0.5" x2="1747.61" y2="-0.5" transform="matrix(-0.999991 0.00419715 0.00726842 0.999974 1760.07 1298.66)" stroke="#777272"/>
<line y1="-0.5" x2="1747.61" y2="-0.5" transform="matrix(-0.999991 0.00419715 0.00726842 0.999974 1759.27 1188.53)" stroke="#777272"/>
<line y1="-0.5" x2="1747.61" y2="-0.5" transform="matrix(-0.999991 0.00419715 0.00726842 0.999974 1758.52 1084.78)" stroke="#777272"/>
<line y1="-0.5" x2="1747.61" y2="-0.5" transform="matrix(-0.999991 0.00419715 0.00726842 0.999974 1757.71 973.052)" stroke="#777272"/>
<line y1="-0.5" x2="1747.61" y2="-0.5" transform="matrix(-0.999991 0.00419715 0.00726842 0.999974 1756.92 864.514)" stroke="#777272"/>
<line y1="-0.5" x2="1747.61" y2="-0.5" transform="matrix(-0.999991 0.00419715 0.00726842 0.999974 1756.13 755.976)" stroke="#777272"/>
<line y1="-0.5" x2="1747.61" y2="-0.5" transform="matrix(-0.999991 0.00419715 0.00726842 0.999974 1755.34 647.438)" stroke="#777272"/>
<line y1="-0.5" x2="1747.61" y2="-0.5" transform="matrix(-0.999991 0.00419715 0.00726842 0.999974 1754.55 538.901)" stroke="#777272"/>
<line y1="-0.5" x2="1747.61" y2="-0.5" transform="matrix(-0.999991 0.00419715 0.00726842 0.999974 1753.75 428.767)" stroke="#777272"/>
<line y1="-0.5" x2="1747.61" y2="-0.5" transform="matrix(-0.999991 0.00419715 0.00726842 0.999974 1753 325.017)" stroke="#777272"/>
<line y1="-0.5" x2="1747.61" y2="-0.5" transform="matrix(-0.999991 0.00419715 0.00726842 0.999974 1752.18 213.287)" stroke="#777272"/>
<line y1="-0.5" x2="1747.61" y2="-0.5" transform="matrix(-0.999991 0.00419715 0.00726842 0.999974 1751.4 104.749)" stroke="#777272"/>
<line y1="-0.5" x2="1747.61" y2="-0.5" transform="matrix(-0.999991 0.00419715 0.00726842 0.999974 1750.64 1)" stroke="#777272"/>
<line y1="-0.5" x2="1302.93" y2="-0.5" transform="matrix(-4.37114e-08 -1 -1 4.37114e-08 0 1306)" stroke="#777272"/>
</svg>
